Patient4_TMGait_0pt4_03_right_05_EMG.mot
version=1
nRows=16
nColumns=33
inDegrees=no
endheader
time	1LAddLong	2LGlutMax	3LGlutMed	4LIliopsoas	5LSemiMemb	6LBicFemLong	7LRecFem	8LVastMed	9LVastLat	10LGasMed	11LTibAnt	12lTibPost	13LPeroneusLong	14LSol	15LExtDigLong	16LFlexDigLong	17RAddLong	18RGlutMax	19RGlutMed	20RIliopsoas	21RSemiMemb	22RBicFemLong	23RRecFem	24RVastMed	25RVastLat	26RGasMed	27RTibAnt	28RTibPost	29RPeroneusLong	30RSol	31RExtDigLong	32RFlexDigLong
6.385	-0.019836	-0.10529	0.039673	0.000458	0.018768	0.62653	-0.00473	0.01236	-0.067139	-0.005188	0.015411	-0.010529	-0.19638	0.043335	-0.036926	-0.006714	0.010834	0.06424	0.010376	-0.075226	0.071106	0.16159	-0.17166	-0.020447	0.00824	0.006256	0.2063	-0.011749	0.14877	0.026245	-0.001373	-0.027313
6.386	-0.032043	-0.075989	0.046234	0.010986	-0.04425	0.62866	0.11047	0.022736	-0.06073	0.02243	0.009155	-0.014191	-0.19989	0.035858	-0.047302	-0.009003	-0.000458	0.080109	0.066681	-0.11856	0.031433	0.11643	-0.177	-0.019226	0.027618	0.005798	0.006409	-0.010223	-0.091553	-0.085144	-0.002899	-0.02655
6.387	-0.029755	-0.023193	0.053406	0.016632	-0.065918	0.51941	0.095673	0.027161	-0.066223	0.026245	0.005646	-0.014191	0.026398	0.046844	-0.016479	-0.008698	-0.003204	0.11841	0.006409	-0.077667	0.084534	0.039825	-0.20538	0.012512	0.024872	-0.001678	0.023804	-0.009918	0.065002	-0.094452	-0.002289	-0.020905
6.388	-0.054932	-0.015411	0.054626	-0.007324	-0.029602	0.28427	-0.071716	0.029144	-0.072174	0.011444	-0.001984	-0.009918	0.14969	0.15579	0.11993	-0.005188	-0.024872	0.059814	-0.017548	0.094604	0.068054	0.064392	-0.23392	0.032501	0.009155	0.001373	-0.10452	-0.009613	0.17471	-0.043335	-0.000305	-0.019531
6.389	0.06546	-0.052338	0.011749	0.001526	0.031738	-0.24551	-0.12222	0.021515	-0.050507	-0.021667	0.014648	-0.008087	0.44922	0.23041	0.11871	-0.002747	-0.021973	-0.033112	-0.14511	0.24414	0.031891	0.11398	-0.18738	0.018921	-0.00885	0.001678	-0.5629	-0.003357	0.19623	0.008087	-0.001678	-0.020447
6.39	0.066833	0.024109	-0.010376	-0.00351	0.072327	-0.52933	-0.14511	0.011139	-0.003052	-0.047913	-0.012054	-0.000763	0.37872	0.15579	0.016327	0.002136	-0.007324	0.018158	-0.14404	0.34134	0.057373	0.13077	-0.20294	0.023041	-0.006561	0.00351	-0.32867	-0.007935	0.23025	-0.052795	0.001221	-0.01297
6.391	0.001984	0.007782	0.013275	0.01297	0.05661	-0.45502	-0.1918	-0.000916	0.079956	-0.054779	0.014801	-0.005798	-0.08194	0.046082	-0.061951	-0.016327	-0.014496	-0.013428	-0.1799	0.28137	0.10193	0.11108	-0.18478	-0.035248	-0.00061	0.004425	-0.060577	-0.00885	0.20096	-0.057373	-0.002289	-0.01358
6.392	0.003052	0.031738	-0.021973	0.016937	-0.03891	-0.41184	-0.19638	-0.019836	0.21668	-0.097504	0.018768	-0.009918	-0.27924	0.072479	-0.010071	-0.003967	-0.016022	-0.027008	-0.018005	0.13306	0.11856	0.015869	-0.20981	-0.014954	-0.00824	-0.014648	0.000916	0.00061	0.14435	-0.06485	0.000153	-0.007477
6.393	-0.029144	0.080109	0.017853	-0.006104	-0.13473	-0.57022	-0.17716	-0.017853	0.27084	-0.093536	-0.033417	0.005951	0.13473	0.075684	0.04425	-0.00946	-0.007172	-0.052032	0.22919	0.048523	0.073395	0.005341	-0.23605	-0.029449	0	-0.010681	-0.11978	-0.007782	0.37323	-0.2652	-0.006256	-0.013275
6.394	-0.033417	0.11231	0.068512	-0.002441	-0.1889	-0.34424	-0.1062	-0.023499	0.24368	-0.061035	-0.012207	0.00473	0.28595	0.037842	0.003357	-0.005798	-0.007019	0.001373	-0.036316	-0.009003	-0.09613	0.045166	-0.22766	0.033722	0.010376	-0.02243	-0.16022	-0.00946	0.12451	-0.4248	-0.001984	-0.014954
6.395	-0.021973	0.12711	0.10147	-0.00824	-0.27939	-0.19119	-0.022125	-0.024567	0.2034	0.004578	0.004272	0.004425	0.21576	-0.052185	-0.057678	-0.009308	-0.020294	-0.05661	-0.069733	-0.04715	-0.03006	-0.041199	-0.24094	0.027771	0.011902	-0.0177	0.014954	0.000153	0.23697	-0.47592	-0.001373	-0.014496
6.396	0.013275	0.14938	0.11749	0.005646	-0.22507	-0.19699	-0.051727	-0.031738	0.09613	0.070801	-0.018616	0.005188	0.31143	-0.036774	-0.067444	-0.007324	-0.013885	-0.010681	-0.177	-0.090332	0.030823	-0.11108	-0.21744	-0.02121	0.00061	-0.010529	-0.15488	-0.000305	-0.16174	-0.057526	-0.005341	-0.013123
6.397	0.039368	0.13336	0.062866	0.000763	0.088196	-0.18494	-0.13107	-0.014191	0.045319	0.1944	-0.024261	0.010834	0.36438	0.063782	-0.037842	-0.003662	-0.022736	-0.01709	-0.14664	-0.063782	0.022583	-0.23392	-0.25009	-0.005188	-0.006256	-0.019531	-0.31647	-0.001373	-0.13229	0.5629	-0.002594	-0.016327
6.398	0.039215	0.080719	0.007782	0.006256	0.22293	-0.0737	-0.18326	-0.007782	0.10574	0.24872	-0.015717	0.028687	0.48187	0.058746	0.01297	0.00946	0.002441	0.015259	-0.015106	-0.044098	0.064087	-0.18936	-0.19501	-0.007324	0.004883	-0.013428	-0.12726	-0.004425	-0.21683	0.3688	0.002747	-0.015564
6.399	0.014038	0.085297	0.065765	0.016632	0.19989	0.14252	-0.10727	-0.008545	0.233	0.038452	0.013275	0.007935	-0.19211	0.17563	0.074463	0.057678	-0.002289	-0.031281	0.006409	-0.08316	0.11887	-0.10498	-0.2301	0.062561	0	-0.014496	0.029907	-0.00351	-0.3952	0.18555	0.002747	-0.017548
6.4	-0.010529	0.072021	0.22675	0.027008	0.14725	0.28641	-0.078583	-0.002594	0.22751	-0.002747	0.032806	0.015869	-0.91614	0.27496	0.10666	0.038452	-0.007019	0.011749	-0.017548	-0.11581	0.11047	-0.078735	-0.22018	0.015106	-0.008698	-0.010834	0.1683	-0.00946	-0.53757	0.18677	-0.001526	-0.012817
